<svg xmlns="http://www.w3.org/2000/svg" x="0px" y="0px"
     width="80" height="80"
     viewBox="0 0 210 210"
     style=" fill:#000000;">
    <g fill="none" fill-rule="nonzero" stroke="none" stroke-width="none" stroke-linecap="butt" stroke-linejoin="miter"
       stroke-miterlimit="10" stroke-dasharray="" stroke-dashoffset="0" font-family="none" font-weight="none"
       font-size="none" text-anchor="none" style="mix-blend-mode: normal">
        <path d="M0,210v-210h210v210z" fill="none" stroke="none" stroke-width="1"></path>
        <g fill="#000000" stroke="none" stroke-width="1">
            <path d="M79.8,25.2c-1.785,0 -3.37411,1.12947 -3.96211,2.81367c-0.588,1.6842 -0.04909,3.55878 1.34531,4.66758c3.2718,2.6082 5.5064,5.86799 6.8168,9.95039v69.46406l-40.98281,59.61211c-1.764,2.5662 -1.9616,5.87049 -0.5168,8.62149c1.449,2.7594 4.29102,4.4707 7.40742,4.4707h110.18438c3.1164,0 5.95442,-1.7155 7.39922,-4.4707c1.449,-2.751 1.25541,-6.05529 -0.50859,-8.62149l-40.98281,-59.61211v-69.84141c0.5544,-4.3806 2.45234,-7.20228 6.14414,-9.13008c1.7136,-0.8946 2.59881,-2.8476 2.14101,-4.725c-0.4662,-1.8816 -2.14896,-3.19922 -4.08516,-3.19922zM89.05313,33.6h30.95859c-1.2474,2.31 -2.04291,4.95482 -2.37891,7.92422c-0.021,0.1554 -0.03281,0.31618 -0.03281,0.47578v71.4c0,0.8484 0.25948,1.68171 0.73828,2.37891l9.1957,13.37109h-45.06797l9.1957,-13.37109c0.4746,-0.6972 0.73828,-1.53051 0.73828,-2.37891v-71.4c0,-0.4032 -0.05887,-0.80305 -0.17227,-1.18945c-0.7686,-2.604 -1.83061,-5.00975 -3.17461,-7.21055zM25.2,58.8c-2.3226,0 -4.2,1.8816 -4.2,4.2v22.39453c-12.7512,5.8842 -20.8992,18.21606 -21,32.17266c-0.0756,10.185 3.82738,19.74105 10.97578,26.90625c7.0476,7.0518 16.48933,10.92656 26.59453,10.92656h0.22969h5.43867l5.87344,-8.4h-11.33672h-0.18047c-7.8834,0 -15.21608,-3.00142 -20.67187,-8.46562c-5.5524,-5.5608 -8.58185,-12.98036 -8.52305,-20.90156c0.02139,-2.94939 0.49723,-5.78197 1.36992,-8.43281h56.76563c0.37463,1.39259 0.63284,2.81904 0.66445,4.29023c0.0252,1.2516 0.0124,5.94871 0.0082,7.63711l7.98164,-11.41875c-1.8648,-11.5668 -11.09784,-20.65573 -20.58984,-24.49453v-22.21406c0,-2.3184 -1.8774,-4.2 -4.2,-4.2zM142.8,58.8c-2.3226,0 -4.2,1.8816 -4.2,4.2v32.89453c-0.07497,0.45356 -0.07497,0.91636 0,1.36992v18.3668l8.1457,11.64023c0.1302,-0.4074 0.2543,-0.81788 0.2543,-1.27148v-25.2h46.2v46.2h-32.66484l5.87344,8.4h30.99141c2.3226,0 4.2,-1.8816 4.2,-4.2v-53.89453c0.07497,-0.45356 0.07497,-0.91636 0,-1.36992v-20.2125c0.105,-3.5322 2.6439,-7.29481 6.0375,-8.94961c1.7556,-0.8568 2.69266,-2.81 2.25586,-4.7168c-0.441,-1.9068 -2.13616,-3.25664 -4.09336,-3.25664zM29.4,67.2h16.8v21c0,1.8774 1.24556,3.52754 3.05156,4.04414c4.6249,1.31562 9.3309,4.42478 12.78047,8.55586h-47.56992c3.08441,-3.77249 7.18794,-6.80489 12.19805,-8.6625c1.6422,-0.609 2.73984,-2.1819 2.73984,-3.9375zM147,67.2h48.58711c-1.4448,2.5746 -2.30311,5.4642 -2.38711,8.4v16.8h-46.2zM76.69102,137.55h56.61797l26.70938,38.85l-110.07773,0.06563z"></path>
        </g>
        <g fill="#000000" stroke="none" stroke-width="1">
            <path d="M84.87,161.22199l0.2,-0.98c0.14667,-0.64 0.36667,-1.23 0.66,-1.77c0.29333,-0.54 0.65333,-1.00667 1.08,-1.4c0.42667,-0.39333 0.91667,-0.69667 1.47,-0.91c0.55333,-0.21333 1.15667,-0.32 1.81,-0.32v0c0.58667,0 1.08,0.04667 1.48,0.14c0.4,0.09333 0.72333,0.23 0.97,0.41c0.24667,0.18 0.42333,0.39667 0.53,0.65c0.10667,0.25333 0.16,0.54667 0.16,0.88v0c0,0.32 -0.06,0.62333 -0.18,0.91c-0.12,0.28667 -0.28,0.55 -0.48,0.79c-0.2,0.24 -0.44,0.45333 -0.72,0.64c-0.28,0.18667 -0.58,0.32667 -0.9,0.42v0l-0.02,0.08c0.54667,0.06667 0.96667,0.23 1.26,0.49c0.29333,0.26 0.44,0.67 0.44,1.23v0c0,0.58667 -0.12,1.10667 -0.36,1.56c-0.24,0.45333 -0.57,0.83667 -0.99,1.15c-0.42,0.31333 -0.91667,0.55333 -1.49,0.72c-0.57333,0.16667 -1.19333,0.25 -1.86,0.25v0c-0.48,0 -0.92,-0.06 -1.32,-0.18c-0.4,-0.12 -0.74667,-0.30667 -1.04,-0.56c-0.29333,-0.25333 -0.52,-0.58 -0.68,-0.98c-0.16,-0.4 -0.24,-0.88667 -0.24,-1.46v0c0,-0.26667 0.02,-0.54333 0.06,-0.83c0.04,-0.28667 0.09333,-0.59667 0.16,-0.93zM87.13,161.78199l-0.06,0.28c-0.05333,0.25333 -0.08,0.50667 -0.08,0.76v0c0,0.89333 0.44667,1.34 1.34,1.34v0c0.50667,0 0.93667,-0.13333 1.29,-0.4c0.35333,-0.26667 0.53,-0.64667 0.53,-1.14v0c0,-0.29333 -0.12,-0.53667 -0.36,-0.73c-0.24,-0.19333 -0.66667,-0.26333 -1.28,-0.21v0zM87.41,160.24199l1.5,-0.16c0.16,-0.01333 0.34333,-0.05333 0.55,-0.12c0.20667,-0.06667 0.4,-0.15667 0.58,-0.27c0.18,-0.11333 0.33333,-0.25333 0.46,-0.42c0.12667,-0.16667 0.19,-0.36333 0.19,-0.59v0c0,-0.26667 -0.06,-0.47333 -0.18,-0.62c-0.12,-0.14667 -0.39333,-0.22 -0.82,-0.22v0c-1.08,0 -1.78667,0.61333 -2.12,1.84v0zM93.97,162.76199v0c0,-1.05333 0.15,-2.01333 0.45,-2.88c0.3,-0.86667 0.7,-1.60667 1.2,-2.22c0.5,-0.61333 1.08,-1.09 1.74,-1.43c0.66,-0.34 1.35,-0.51 2.07,-0.51v0c0.64,0 1.18,0.1 1.62,0.3c0.44,0.2 0.79667,0.46667 1.07,0.8c0.27333,0.33333 0.47,0.71333 0.59,1.14c0.12,0.42667 0.18,0.86667 0.18,1.32v0c0,1.04 -0.14667,1.99 -0.44,2.85c-0.29333,0.86 -0.68667,1.59667 -1.18,2.21c-0.49333,0.61333 -1.06667,1.09 -1.72,1.43c-0.65333,0.34 -1.34,0.51 -2.06,0.51v0c-0.62667,0 -1.16,-0.10333 -1.6,-0.31c-0.44,-0.20667 -0.80333,-0.47667 -1.09,-0.81c-0.28667,-0.33333 -0.49667,-0.71 -0.63,-1.13c-0.13333,-0.42 -0.2,-0.84333 -0.2,-1.27zM96.51,162.42199v0c0,1.2 0.43333,1.8 1.3,1.8v0c0.32,0 0.63333,-0.14 0.94,-0.42c0.30667,-0.28 0.58,-0.64667 0.82,-1.1c0.24,-0.45333 0.43,-0.96667 0.57,-1.54c0.14,-0.57333 0.21,-1.14667 0.21,-1.72v0c0,-0.53333 -0.09,-0.94333 -0.27,-1.23c-0.18,-0.28667 -0.51667,-0.43 -1.01,-0.43v0c-0.32,0 -0.63333,0.13333 -0.94,0.4c-0.30667,0.26667 -0.58,0.61667 -0.82,1.05c-0.24,0.43333 -0.43333,0.93 -0.58,1.49c-0.14667,0.56 -0.22,1.12667 -0.22,1.7zM109.07,156.00199v0c0.36,0 0.64667,0.03333 0.86,0.1c0.21333,0.06667 0.4,0.15333 0.56,0.26v0h0.1c-0.08,-0.96 -0.45667,-1.67333 -1.13,-2.14c-0.67333,-0.46667 -1.53667,-0.69333 -2.59,-0.68v0l0.4,-1.82c1.97333,-0.05333 3.43333,0.43 4.38,1.45c0.94667,1.02 1.42,2.49 1.42,4.41v0c0,1.46667 -0.15333,2.74333 -0.46,3.83c-0.30667,1.08667 -0.72,1.99 -1.24,2.71c-0.52,0.72 -1.11333,1.26 -1.78,1.62c-0.66667,0.36 -1.36,0.54 -2.08,0.54v0c-1.21333,0 -2.11,-0.36333 -2.69,-1.09c-0.58,-0.72667 -0.87,-1.69667 -0.87,-2.91v0c0,-0.84 0.12333,-1.63667 0.37,-2.39c0.24667,-0.75333 0.59667,-1.42 1.05,-2c0.45333,-0.58 0.99333,-1.04 1.62,-1.38c0.62667,-0.34 1.32,-0.51 2.08,-0.51zM110.53,158.54199v0c-0.18667,-0.16 -0.38333,-0.28 -0.59,-0.36c-0.20667,-0.08 -0.47,-0.12 -0.79,-0.12v0c-0.34667,0 -0.68,0.09667 -1,0.29c-0.32,0.19333 -0.60333,0.47333 -0.85,0.84c-0.24667,0.36667 -0.44333,0.81333 -0.59,1.34c-0.14667,0.52667 -0.22,1.12333 -0.22,1.79v0c0,0.50667 0.10333,0.95 0.31,1.33c0.20667,0.38 0.53,0.57 0.97,0.57v0c0.49333,0 0.91333,-0.18333 1.26,-0.55c0.34667,-0.36667 0.63,-0.83 0.85,-1.39c0.22,-0.56 0.38333,-1.17333 0.49,-1.84c0.10667,-0.66667 0.16,-1.3 0.16,-1.9zM123.35,156.20199l-1.24,5.8c-0.10667,0.50667 -0.18333,1.02 -0.23,1.54c-0.04667,0.52 -0.07,1.01333 -0.07,1.48v0c0,0.18667 0.00333,0.36333 0.01,0.53c0.00667,0.16667 0.01667,0.32333 0.03,0.47v0h-1.82l-0.28,-1.72h-0.08c-0.14667,0.24 -0.33667,0.47667 -0.57,0.71c-0.23333,0.23333 -0.49,0.44667 -0.77,0.64c-0.28,0.19333 -0.57667,0.34667 -0.89,0.46c-0.31333,0.11333 -0.63667,0.17 -0.97,0.17v0c-0.88,0 -1.53,-0.28667 -1.95,-0.86c-0.42,-0.57333 -0.63,-1.34 -0.63,-2.3v0c0,-0.97333 0.12333,-1.90667 0.37,-2.8c0.24667,-0.89333 0.63,-1.68 1.15,-2.36c0.52,-0.68 1.17667,-1.22333 1.97,-1.63c0.79333,-0.40667 1.73667,-0.61 2.83,-0.61v0c0.46667,0 0.97667,0.04333 1.53,0.13c0.55333,0.08667 1.09,0.20333 1.61,0.35zM117.41,164.22199v0c0.24,0 0.46667,-0.05 0.68,-0.15c0.21333,-0.1 0.41,-0.23 0.59,-0.39c0.18,-0.16 0.34,-0.33333 0.48,-0.52c0.14,-0.18667 0.26333,-0.36 0.37,-0.52v0l1,-4.66c-0.14667,-0.06667 -0.31667,-0.11667 -0.51,-0.15c-0.19333,-0.03333 -0.38333,-0.05 -0.57,-0.05v0c-0.48,0 -0.90667,0.14333 -1.28,0.43c-0.37333,0.28667 -0.69,0.66 -0.95,1.12c-0.26,0.46 -0.45667,0.98 -0.59,1.56c-0.13333,0.58 -0.2,1.16333 -0.2,1.75v0c0,0.42667 0.07,0.79667 0.21,1.11c0.14,0.31333 0.39667,0.47 0.77,0.47z"></path>
        </g>
        <path d="M74.65,176.28199v-34.56398h58.7v34.56398z" fill="#ff0000" stroke="#50e3c2" stroke-width="3"
              opacity="0"></path>
    </g>
</svg>